<?xml version="1.0" encoding="utf-8"?>
<!-- Generator: Adobe Illustrator 15.1.0, SVG Export Plug-In . SVG Version: 6.00 Build 0)  -->
<!DOCTYPE svg PUBLIC "-//W3C//DTD SVG 1.1//EN" "http://www.w3.org/Graphics/SVG/1.1/DTD/svg11.dtd">
<svg version="1.1" id="Layer_1" xmlns="http://www.w3.org/2000/svg" xmlns:xlink="http://www.w3.org/1999/xlink" x="0px" y="0px"
	 width="500px" height="500px" viewBox="0 0 500 500" enable-background="new 0 0 500 500" xml:space="preserve">
<g>
	<path d="M192.682,164.234l20.379,9.341c-0.85,1.699-2.547,3.822-4.67,5.096c-22.079,106.994-74.303,185.966-137.566,228.85
		c-5.095-7.218-16.134-18.257-22.927-22.928c57.318-35.665,104.872-101.475,126.526-190.214H59.362v-28.871h128.223L192.682,164.234
		z M264.86,131.116c9.341,35.241,22.078,69.207,37.362,100.626c35.666-30.145,78.973-74.726,105.297-109.118l30.146,22.503
		c-2.123,2.547-5.944,2.972-9.341,2.547c-29.297,32.268-76.849,77.699-113.788,107.419c33.967,59.442,79.397,107.42,137.565,132.046
		c-7.218,5.944-16.984,17.408-22.079,25.899c-77.273-36.938-130.347-112.515-165.162-204.649v196.582
		c0,38.638-17.833,42.035-97.654,42.035c-1.698-8.492-7.217-22.928-11.888-30.996c16.134,0.426,30.995,0.426,42.883,0.426
		c35.665,0,36.939,0,36.939-11.465V52.993l38.212,2.123c-0.424,3.397-2.547,5.521-8.491,5.945V131.116z"/>
</g>
</svg>
